# xmcd CD database file
#
# Track frame offsets:
#	150
#	27219
#	44887
#	66173
#	86508
#	102707
#	126397
#	150988
#	177473
#	199382
#
# Disc length: 3039 seconds
#
# Revision: 1
# Processed by: cddbd v1.5.2PL0 Copyright (c) Steve Scherf et al.
# Submitted via: CDex 1.77
#
DISCID=920bdd0a
DTITLE=JockeKantola Band - RePro
DYEAR=2014
DGENRE=Jazz
TTITLE0=Niittikone
TTITLE1=Life Is
TTITLE2=Nearby
TTITLE3=Sunnuntaiaamu
TTITLE4=Snow Dance
TTITLE5=Eija
TTITLE6=Wohlcane
TTITLE7=Wysiwyg
TTITLE8=Link-a-Spa
TTITLE9=Roll It Up!
EXTD=YEAR: 2014
EXTT0=
EXTT1=
EXTT2=
EXTT3=
EXTT4=
EXTT5=
EXTT6=
EXTT7=
EXTT8=
EXTT9=
PLAYORDER=
